<?xml version="1.0" standalone="no"?>
<!DOCTYPE svg PUBLIC "-//W3C//DTD SVG 20010904//EN"
 "http://www.w3.org/TR/2001/REC-SVG-20010904/DTD/svg10.dtd">
<svg version="1.0" xmlns="http://www.w3.org/2000/svg"
 width="745.000000pt" height="745.000000pt" viewBox="0 0 745.000000 745.000000"
 preserveAspectRatio="xMidYMid meet">
<metadata>
Created by potrace 1.14, written by Peter Selinger 2001-2017
</metadata>
<g transform="translate(0.000000,745.000000) scale(0.100000,-0.100000)"
fill="#000000" stroke="none">
<path d="M3271 7001 c-248 -249 -451 -453 -451 -455 0 -1 203 -206 451 -454
l451 -451 449 449 c247 247 449 452 449 457 0 4 -203 210 -450 456 l-449 449
-450 -451z"/>
<path d="M1919 5550 c-493 -493 -899 -902 -902 -907 -4 -6 196 -214 444 -461
l451 -451 -429 -429 c-235 -236 -438 -440 -451 -454 l-23 -25 901 -902 c496
-495 904 -901 907 -901 2 0 207 203 455 450 l450 451 438 -438 c240 -241 444
-444 453 -452 15 -12 118 88 917 887 495 496 900 904 900 908 0 4 -202 209
-449 456 l-449 449 449 449 c247 246 449 451 449 456 0 4 -406 413 -902 909
l-901 901 -453 -452 -452 -453 -453 453 -454 453 -896 -897z"/>
<path d="M453 4184 l-452 -453 433 -433 c239 -238 443 -441 455 -452 21 -19
21 -18 472 433 l451 452 -454 453 -453 452 -452 -452z"/>
<path d="M6082 4181 l-450 -450 449 -448 c247 -246 451 -450 454 -452 2 -2
207 200 456 448 l451 452 -448 449 c-247 247 -452 450 -456 450 -3 0 -209
-202 -456 -449z"/>
<path d="M3271 1369 c-248 -248 -451 -452 -451 -454 0 -2 203 -206 451 -454
l451 -451 449 450 c247 246 449 452 449 456 0 3 -202 209 -449 455 l-449 449
-451 -451z"/>
</g>
</svg>
